# 3ds Max Wavefront OBJ Exporter v0.97b - (c)2007 guruware
# File Created: 15.02.2017 17:55:55

mtllib ChessBoard.mtl

#
# object Box001
#

v  -1.151522 0.000000 1.151522
v  1.151522 0.000000 1.151522
v  -1.151522 0.000000 -1.151522
v  1.151522 0.000000 -1.151522
v  -1.151522 0.086482 1.151522
v  1.151522 0.086482 1.151522
v  -1.151522 0.086482 -1.151522
v  1.151522 0.086482 -1.151522
# 8 vertices

vn 0.000000 -1.000000 -0.000000
vn 0.000000 -1.000000 -0.000000
vn 0.000000 -1.000000 -0.000000
vn 0.000000 -1.000000 -0.000000
vn 0.000000 -1.000000 -0.000000
vn 0.000000 -1.000000 -0.000000
vn 0.000000 1.000000 -0.000000
vn 0.000000 1.000000 -0.000000
vn 0.000000 1.000000 -0.000000
vn 0.000000 1.000000 -0.000000
vn 0.000000 1.000000 -0.000000
vn 0.000000 1.000000 -0.000000
vn 0.000000 0.000000 1.000000
vn 0.000000 0.000000 1.000000
vn 0.000000 0.000000 1.000000
vn 0.000000 0.000000 1.000000
vn 0.000000 0.000000 1.000000
vn 0.000000 0.000000 1.000000
vn 1.000000 0.000000 -0.000000
vn 1.000000 0.000000 -0.000000
vn 1.000000 0.000000 -0.000000
vn 1.000000 0.000000 -0.000000
vn 1.000000 0.000000 -0.000000
vn 1.000000 0.000000 -0.000000
vn 0.000000 0.000000 -1.000000
vn 0.000000 0.000000 -1.000000
vn 0.000000 0.000000 -1.000000
vn 0.000000 0.000000 -1.000000
vn 0.000000 0.000000 -1.000000
vn 0.000000 0.000000 -1.000000
vn -1.000000 0.000000 -0.000000
vn -1.000000 0.000000 -0.000000
vn -1.000000 0.000000 -0.000000
vn -1.000000 0.000000 -0.000000
vn -1.000000 0.000000 -0.000000
vn -1.000000 0.000000 -0.000000
# 36 vertex normals

vt 0.501114 0.074825 0.000000
vt 0.042109 0.074825 0.000000
vt 0.501114 0.533830 0.000000
vt 0.042109 0.533830 0.000000
vt 0.514575 0.074825 0.000000
vt 0.973581 0.074825 0.000000
vt 0.514575 0.533830 0.000000
vt 0.973581 0.533830 0.000000
vt 0.514575 0.577989 0.000000
vt 0.973576 0.577989 0.000000
vt 0.514575 0.595225 0.000000
vt 0.973576 0.595225 0.000000
vt 0.514575 0.547291 0.000000
vt 0.973580 0.547291 0.000000
vt 0.514575 0.564528 0.000000
vt 0.973580 0.564528 0.000000
vt 0.042109 0.577989 0.000000
vt 0.501112 0.577989 0.000000
vt 0.042109 0.595226 0.000000
vt 0.501112 0.595226 0.000000
vt 0.042109 0.547292 0.000000
vt 0.501113 0.547292 0.000000
vt 0.042109 0.564528 0.000000
vt 0.501113 0.564528 0.000000
# 24 texture coords

g Box001
usemtl wire_087225143
s off
f 2/2/1 1/1/2 4/4/3 
f 1/1/4 3/3/5 4/4/6 
f 8/8/7 7/7/8 5/5/9 
f 8/8/10 5/5/11 6/6/12 
f 6/12/13 5/11/14 1/9/15 
f 6/12/16 1/9/17 2/10/18 
f 8/16/19 6/15/20 2/13/21 
f 8/16/22 2/13/23 4/14/24 
f 7/20/25 8/19/26 4/17/27 
f 7/20/28 4/17/29 3/18/30 
f 5/24/31 7/23/32 3/21/33 
f 5/24/34 3/21/35 1/22/36 
# 0 polygons - 12 triangles

